<?xml version="1.0" encoding="UTF-8"?>
<svg width="30px" height="30px" viewBox="0 0 30 30" version="1.1" xmlns="http://www.w3.org/2000/svg" xmlns:xlink="http://www.w3.org/1999/xlink">
    <!-- Generator: Sketch 49 (51002) - http://www.bohemiancoding.com/sketch -->
    <title>behance</title>
    <desc>Created with Sketch.</desc>
    <defs></defs>
    <g id="VIstas" stroke="none" stroke-width="1" fill="none" fill-rule="evenodd">
        <g id="Desktop-HD-Copy" transform="translate(-983.000000, -849.000000)" fill="#000000" fill-rule="nonzero">
            <g id="behance" transform="translate(983.000000, 849.000000)">
                <path d="M11.9531209,15.9932967 C11.5840879,15.7133407 11.0918901,15.5740879 10.4864176,15.5740879 L7.42846154,15.5740879 L7.42846154,19.0920659 L10.430044,19.0920659 C10.7076923,19.0920659 10.971033,19.0674725 11.2188132,19.012022 C11.4703516,18.957033 11.6934725,18.8698681 11.8815824,18.741033 C12.0696923,18.6171429 12.2254945,18.4472967 12.3387692,18.2312967 C12.4524396,18.0172088 12.5069011,17.7390989 12.5069011,17.4032308 C12.5069011,16.7446813 12.3216923,16.2773407 11.9531209,15.9932967 Z" id="Shape"></path>
                <path d="M11.5124835,13.2958681 C11.836022,13.0596923 11.9928791,12.6693626 11.9928791,12.134044 C11.9928791,11.8367473 11.9407912,11.5910769 11.836022,11.4004615 C11.7275604,11.2097802 11.584022,11.0605714 11.4025714,10.9561319 C11.2225714,10.8474066 11.0192967,10.7723077 10.7833846,10.7318242 C10.5517582,10.6865275 10.3087253,10.6687912 10.059956,10.6687912 L7.42832967,10.6687912 L7.42832967,13.654022 L10.2745714,13.654022 C10.773033,13.654022 11.1856484,13.5358022 11.5124835,13.2958681 Z" id="Shape"></path>
                <path d="M0,0 L0,30 L30,30 L30,0 L0,0 Z M18.1738022,9.34958242 L23.3522637,9.34958242 L23.3522637,10.6102418 L18.1738022,10.6102418 L18.1738022,9.34958242 Z M14.940989,19.2334286 C14.6909011,19.7084176 14.3502857,20.0932747 13.9304835,20.3903077 C13.5074505,20.689978 13.0213846,20.9097363 12.477033,21.0528132 C11.9388791,21.1958901 11.3798901,21.2678901 10.8075824,21.2678901 L4.61538462,21.2678901 L4.61538462,8.49257143 L10.6385275,8.49257143 C11.2496703,8.49257143 11.8010769,8.54538462 12.3051429,8.65463736 C12.8063736,8.76098901 13.2341538,8.93841758 13.5956044,9.18164835 C13.9513846,9.42494505 14.229956,9.74848352 14.4293407,10.1561538 C14.624044,10.5576923 14.7216923,11.0605714 14.7216923,11.6550989 C14.7216923,12.2982198 14.5757802,12.8353846 14.283956,13.2648132 C13.9897582,13.6935165 13.5577582,14.0453407 12.9802418,14.3184396 C13.7666374,14.5443956 14.3489011,14.9423736 14.7349451,15.5082198 C15.122967,16.077956 15.3129231,16.7595824 15.3129231,17.5588352 C15.3128571,18.2066374 15.1887692,18.7645055 14.940989,19.2334286 Z M25.3684615,17.2544176 L18.6934945,17.2544176 C18.6934945,17.9856264 18.9407473,18.678 19.3226374,19.0496044 C19.703011,19.4212747 20.253033,19.6081319 20.9655165,19.6081319 C21.4780879,19.6081319 21.921033,19.4785714 22.2924396,19.2203736 C22.6605495,18.9624396 22.8845934,18.6867033 22.9712967,18.4003516 L25.2087692,18.4003516 C24.8492308,19.5138462 24.3034945,20.3087473 23.5592308,20.7872967 C22.8235385,21.2678901 21.9261758,21.5073626 20.8807253,21.5073626 C20.1520879,21.5073626 19.4964396,21.3894066 18.9075824,21.1570549 C18.3191868,20.9218022 17.8274505,20.5921319 17.4139121,20.1624396 C17.0107253,19.7306374 16.6976044,19.2204396 16.4744835,18.6209011 C16.2537363,18.0246593 16.1423736,17.3645275 16.1423736,16.6491429 C16.1423736,15.9574945 16.257956,15.3112747 16.4839121,14.7141099 C16.7146154,14.1148352 17.0334725,13.5977802 17.4527473,13.1640659 C17.8729451,12.727978 18.3712747,12.3838022 18.9516264,12.1325275 C19.531978,11.8821099 20.1719341,11.7561099 20.8807253,11.7561099 C21.6632967,11.7561099 22.3488132,11.9067033 22.9362857,12.2134945 C23.5217802,12.516 24.0017143,12.926044 24.3787912,13.4393407 C24.7558681,13.9517143 25.024022,14.5377363 25.1917582,15.195033 C25.358044,15.8512088 25.4163297,16.5367253 25.3684615,17.2544176 Z" id="Shape"></path>
                <path d="M20.8044396,13.6745934 C20.3984835,13.6745934 20.0625495,13.7428352 19.7935385,13.8820879 C19.5305934,14.0194945 19.3150549,14.1904615 19.1502198,14.3918242 C18.9863077,14.5964835 18.8744835,14.8124835 18.8096044,15.0434505 C18.7442637,15.2684835 18.7054286,15.4726813 18.6935604,15.6532088 L22.8274286,15.6532088 C22.7667692,15.0053407 22.545033,14.5263956 22.2418681,14.1896044 C21.940022,13.8553187 21.4283736,13.6745934 20.8044396,13.6745934 Z" id="Shape"></path>
            </g>
        </g>
    </g>
</svg>