<?xml version="1.0" encoding="UTF-8"?>
<svg width="75px" height="75px" viewBox="0 0 75 75" version="1.1" xmlns="http://www.w3.org/2000/svg" xmlns:xlink="http://www.w3.org/1999/xlink">
    <!-- Generator: Sketch 51.2 (57519) - http://www.bohemiancoding.com/sketch -->
    <title>Group 3</title>
    <desc>Created with Sketch.</desc>
    <defs>
        <linearGradient x1="0%" y1="0%" x2="73.3210426%" y2="84.2887446%" id="linearGradient-1">
            <stop stop-color="#E8EAF6" offset="0%"></stop>
            <stop stop-color="#E8EAF6" offset="99.5515784%"></stop>
        </linearGradient>
        <linearGradient x1="52.3878976%" y1="98.0050223%" x2="93.1601562%" y2="0%" id="linearGradient-2">
            <stop stop-color="#003EFF" offset="0%"></stop>
            <stop stop-color="#0084FF" offset="100%"></stop>
        </linearGradient>
    </defs>
    <g id="First-Step" stroke="none" stroke-width="1" fill="none" fill-rule="evenodd">
        <g id="Desktop-HD" transform="translate(-165.000000, -42.000000)">
            <g id="Group-3" transform="translate(165.000000, 42.000000)">
                <g id="Brand-/-Primary">
                    <g id="Primary">
                        <path d="M37.5,0 C58.2106781,0 75,16.7893219 75,37.5 L37.5,37.5 C12.5,26.3071187 0,13.8071187 0,0 L37.5,0 Z" id="Combined-Shape-Copy-27" fill="url(#linearGradient-1)"></path>
                        <path d="M37.5,37.5 C51.3802942,37.5 63.499241,29.9587757 69.9831677,18.75 C73.1738571,24.2657506 75,30.6696161 75,37.5 C75,58.2106781 58.2106781,75 37.5,75 C16.7893219,75 0,58.2106781 0,37.5 L37.5,37.5 Z" id="Combined-Shape-Copy-21" fill="url(#linearGradient-2)"></path>
                    </g>
                </g>
            </g>
        </g>
    </g>
</svg>