<svg width="1980px" height="1100px" viewBox="0 0 1980 1100" version="1.1" xmlns="http://www.w3.org/2000/svg" xmlns:xlink="http://www.w3.org/1999/xlink">
    <!-- Generator: Sketch 50.2 (55047) - http://www.bohemiancoding.com/sketch -->
    <title>hero dark</title>
    <desc>Created with Sketch.</desc>
    <defs></defs>
    <g id="hero-dark" stroke="none" stroke-width="1" fill="none" fill-rule="evenodd">
        <polygon id="Rectangle-4" fill="#2C2984" points="0 0 1980 0 1980 1100 987 1100 0 1100"></polygon>
        <g id="Group-4" transform="translate(990.000000, 150.000000)">
            <path d="M333.188757,707.97546 C384.100952,707.97546 425.373441,749.17625 425.373441,800 L333.188757,800 C282.276563,800 241.004074,758.79921 241.004074,707.97546 L333.188757,707.97546 Z" id="Combined-Shape-Copy-48" fill="#3000FF"></path>
            <path d="M735.72854,615.95092 C837.552929,615.95092 920.097906,698.3525 920.097906,800 L735.72854,800 C633.904151,800 551.359174,717.59842 551.359174,615.95092 L735.72854,615.95092 Z" id="Combined-Shape-Copy-50" fill="#2978FF" transform="translate(735.728540, 707.975460) scale(1, -1) translate(-735.728540, -707.975460) "></path>
            <g id="Group-2" transform="translate(241.004074, 615.950920)" fill="#50E2C1">
                <path d="M92.1846831,92.0245399 L6.963e-13,92.0245399 C6.963e-13,41.2007899 41.2724884,0 92.1846831,0 L264.313232,0 C289.741453,-4.66808571e-15 310.3551,20.6003949 310.3551,46.0122699 C310.3551,71.4241449 289.741453,92.0245399 264.313232,92.0245399 L92.1846831,92.0245399 Z" id="Combined-Shape"></path>
            </g>
            <g id="Group-3">
                <rect id="Rectangle-27-Copy" fill="#491FFF" x="46.8016754" y="0" width="649.594733" height="92.0245399" rx="46.0122699"></rect>
                <rect id="Rectangle-27-Copy-4" fill="#30A1FE" x="577.225106" y="411.042945" width="404.8896" height="92.0245399" rx="46.0122699"></rect>
                <path d="M936.076585,0 L1108.20513,0 C1133.63335,-1.61868135e-14 1154.247,20.6003949 1154.247,46.0122699 C1154.247,71.4241449 1133.63335,92.0245399 1108.20513,92.0245399 L936.076585,92.0245399 L936.076585,0 Z M936.076585,0 L936.076585,92.0245399 L843.891902,92.0245399 C843.891902,41.2007899 885.16439,0 936.076585,0 Z" id="Combined-Shape" fill="#FFFFFF"></path>
                <path d="M315.98095,503.067485 L223.796267,503.067485 C223.796267,452.243735 265.068755,411.042945 315.98095,411.042945 L488.139097,411.042945 C513.550972,411.042945 534.151367,431.64334 534.151367,457.055215 C534.151367,482.46709 513.550972,503.067485 488.139097,503.067485 L315.98095,503.067485 Z" id="Combined-Shape" fill="#FFFFFF"></path>
                <ellipse id="Oval-14-Copy-4" fill="#30A1FE" cx="770.144155" cy="46.0122699" rx="46.0923415" ry="46.0122699"></ellipse>
                <ellipse id="Oval-14-Copy-6" fill="#50E2C1" cx="273.575996" cy="251.533742" rx="46.0923415" ry="46.0122699"></ellipse>
                <ellipse id="Oval-14-Copy-8" fill="#F8F8FF" cx="936.076585" cy="457.055215" rx="46.0923415" ry="46.0122699"></ellipse>
                <ellipse id="Oval-14-Copy-7" fill="#491FFF" transform="translate(488.059025, 457.055215) scale(1, -1) translate(-488.059025, -457.055215) " cx="488.059025" cy="457.055215" rx="46.0923415" ry="46.0122699"></ellipse>
                <path d="M92.8940169,0 C143.806212,0 185.0787,41.2007899 185.0787,92.0245399 L92.8940169,92.0245399 C41.9818223,92.0245399 0.709333854,50.82375 0.709333854,0 L92.8940169,0 Z" id="Combined-Shape-Copy-40" fill="#FFFFFF"></path>
                <path d="M441.966683,297.546012 C492.878878,297.546012 534.151367,338.746802 534.151367,389.570552 L441.966683,389.570552 C391.054489,389.570552 349.782,348.369762 349.782,297.546012 L441.966683,297.546012 Z" id="Combined-Shape-Copy-43" fill="#FFFFFF"></path>
                <g id="Group" transform="translate(349.782000, 205.521472)" fill="#491FFF">
                    <path d="M46.08,0 L795.351317,7.10542736e-15 C820.763192,2.43734165e-15 841.363587,20.6003949 841.363587,46.0122699 L841.363587,46.0122699 C841.363587,71.4241449 820.763192,92.0245399 795.351317,92.0245399 L46.08,92.0245399 L46.08,0 Z" id="Rectangle-27-Copy-2" transform="translate(443.721794, 46.012270) scale(-1, 1) translate(-443.721794, -46.012270) "></path>
                    <path d="M92.16,92.0245399 L0,92.0245399 L0,0 C50.8985625,0 92.16,41.2007899 92.16,92.0245399 Z" id="Combined-Shape-Copy-44" transform="translate(46.080000, 46.012270) scale(-1, 1) translate(-46.080000, -46.012270) "></path>
                </g>
                <path d="M936.076585,92.0245399 C986.988779,92.0245399 1028.26127,133.22533 1028.26127,184.04908 L936.076585,184.04908 C885.16439,184.04908 843.891902,142.84829 843.891902,92.0245399 L936.076585,92.0245399 Z" id="Combined-Shape-Copy-42" fill="#2978FF"></path>
                <path d="M223.796267,503.067485 C274.708461,503.067485 315.98095,544.268275 315.98095,595.092025 L223.796267,595.092025 C172.884072,595.092025 131.611584,553.891235 131.611584,503.067485 L223.796267,503.067485 Z" id="Combined-Shape-Copy-45" fill="#2978FF" transform="translate(223.796267, 549.079755) scale(1, -1) translate(-223.796267, -549.079755) "></path>
                <path d="M92.8940169,92.0245399 C143.806212,92.0245399 185.0787,133.22533 185.0787,184.04908 L92.8940169,184.04908 C41.9818223,184.04908 0.709333854,142.84829 0.709333854,92.0245399 L92.8940169,92.0245399 Z" id="Combined-Shape-Copy-40" fill="#2978FF" transform="translate(92.894017, 138.036810) scale(1, -1) translate(-92.894017, -138.036810) "></path>
            </g>
        </g>
    </g>
</svg>